<?xml version="1.0" encoding="UTF-8"?>
<svg id="Calque_1" xmlns="http://www.w3.org/2000/svg" version="1.1" viewBox="0 0 227.8 220.3">
  <!-- Generator: Adobe Illustrator 29.1.0, SVG Export Plug-In . SVG Version: 2.1.0 Build 142)  -->
  <defs>
    <style>
      .st0 {
        fill: #ffbc00;
      }
    </style>
  </defs>
  <path class="st0" d="M33,71.8c4.4-9.4,10.4-17.8,17.8-25.2s17.9-14.8,28.6-19.3c11.1-4.7,22.9-7.1,35.1-7.1s24,2.4,35.1,7.1c10.7,4.5,20.4,11,28.6,19.3,7.4,7.4,13.3,15.8,17.8,25.2l.5,1h19.3C200.5,31.6,160.9,2.2,114.4,2.2S28.4,31.6,13.2,72.8h19.3l.5-1Z"/>
  <path class="st0" d="M57,167.8c11.1,11.1,25.1,18.8,40.4,22l2.1.4v-109.8h-60.6l-.4,1.1c-3.5,9.2-5.2,18.8-5.2,28.7,0,21.7,8.5,42.1,23.8,57.5Z"/>
  <path class="st0" d="M218.2,80.4h-88.7v109.8l2.1-.4c15.3-3.3,29.2-10.9,40.4-22,8-8,14.1-17.3,18.2-27.6h9.4c-.6,1.8-1.3,3.5-2,5.2-4.5,10.7-11,20.4-19.3,28.6s-17.9,14.8-28.6,19.3c-8.8,3.7-18.2,6-27.7,6.8v-127.3h64.9l-1.5-2.6c-3.6-6.3-8.1-12.2-13.3-17.4-15.4-15.4-35.8-23.8-57.5-23.8s-42.1,8.5-57.5,23.8c-5.2,5.2-9.7,11.1-13.3,17.4l-1.5,2.6h64.9v127.3c-9.6-.8-18.9-3-27.7-6.8-10.7-4.5-20.4-11-28.6-19.3-8.3-8.3-14.8-17.9-19.3-28.6-4.7-11.1-7.1-22.9-7.1-35.1s1.4-18.7,4.3-27.6l.7-2.2H10.7c-2.7,9.4-4.1,19.4-4.1,29.7,0,59.6,48.3,107.9,107.9,107.9s107.9-48.3,107.9-107.9-1.4-20.3-4.1-29.7Z"/>
</svg>