<?xml version="1.0" encoding="UTF-8"?>
<svg id="Calque_1" xmlns="http://www.w3.org/2000/svg" version="1.1" viewBox="0 0 747.8 220.3">
  <!-- Generator: Adobe Illustrator 29.1.0, SVG Export Plug-In . SVG Version: 2.1.0 Build 142)  -->
  <defs>
    <style>
      .st0 {
        fill: #fff;
      }
    </style>
  </defs>
  <g>
    <path class="st0" d="M561.9,76c3.9-8.3,9.3-15.9,15.8-22.5s16-13.2,25.5-17.2c9.9-4.2,20.4-6.3,31.2-6.3s21.3,2.1,31.2,6.3c9.6,4,18.1,9.8,25.5,17.2,6.6,6.6,11.9,14.1,15.8,22.5l.4.9h17.2c-13.5-36.7-48.8-62.8-90.2-62.8s-76.7,26.2-90.2,62.8h17.2l.4-.9Z"/>
    <path class="st0" d="M583.2,161.5c9.9,9.9,22.4,16.7,36,19.6l1.8.4v-97.8h-54l-.4,1c-3.1,8.2-4.6,16.8-4.6,25.6,0,19.3,7.5,37.5,21.2,51.2Z"/>
    <path class="st0" d="M726.9,83.7h-79.1v97.8l1.8-.4c13.6-2.9,26.1-9.7,36-19.6,7.1-7.1,12.6-15.4,16.2-24.6h8.4c-.6,1.6-1.2,3.1-1.8,4.7-4,9.6-9.8,18.1-17.2,25.5s-16,13.2-25.5,17.2c-7.9,3.3-16.2,5.4-24.7,6v-113.4h57.8l-1.3-2.3c-3.2-5.6-7.2-10.9-11.8-15.5-13.7-13.7-31.9-21.2-51.2-21.2s-37.5,7.5-51.2,21.2c-4.6,4.6-8.6,9.9-11.8,15.5l-1.3,2.3h57.8v113.4c-8.5-.7-16.8-2.7-24.7-6-9.6-4-18.1-9.8-25.5-17.2-7.4-7.4-13.2-16-17.2-25.5-4.2-9.9-6.3-20.4-6.3-31.2s1.3-16.7,3.8-24.6l.6-2h-16.7c-2.4,8.4-3.7,17.3-3.7,26.5,0,53.1,43,96.1,96.1,96.1s96.1-43,96.1-96.1-1.3-18-3.7-26.5Z"/>
  </g>
  <g>
    <polygon class="st0" points="17.2 51 38.7 51 38.7 109.8 53.7 109.8 53.7 51 75.1 51 75.1 38.4 17.2 38.4 17.2 51"/>
    <polygon class="st0" points="98.8 78.6 133.5 78.6 133.5 66.2 98.8 66.2 98.8 51 136.6 51 136.6 38.4 84.2 38.4 84.2 109.8 138.4 109.8 138.4 96.9 98.8 96.9 98.8 78.6"/>
    <path class="st0" d="M191.8,93.2v6.6c.1,2.1.3,4.2.7,6.2.2,1,.5,2.2,1,3.8h16.4v-1.8c-1.4-.9-2.3-2.2-2.7-4.1-.3-1.2-.4-3.4-.4-6.6v-4.8c0-5-.7-8.7-2.1-11.2-1.4-2.4-3.7-4.3-7-5.6,3.9-1.4,6.8-3.7,8.5-7,1.7-3.3,2.6-6.6,2.6-10s-.5-5.3-1.4-7.5c-.9-2.2-2.1-4.2-3.7-6-1.9-2.2-4.2-3.9-6.9-5-2.7-1.1-6.5-1.7-11.6-1.8h-35v71.4h14.6v-28h15.4c4.4,0,7.4.8,9,2.3,1.6,1.5,2.4,4.6,2.5,9.1ZM164.9,70v-19.2h17.3c3.2,0,5.7.4,7.3,1.3,2.9,1.5,4.3,4.4,4.3,8.7s-1.5,6.7-4.5,8c-1.7.8-4.2,1.2-7.6,1.2h-16.9Z"/>
    <path class="st0" d="M242.1,38.4l-25.5,71.4h15.6l4.9-14.7h26.3l4.6,14.7h16.2l-25.3-71.4h-16.9ZM241.2,82.8l9.2-28.1,8.9,28.1h-18.1Z"/>
    <polygon class="st0" points="351.1 38.4 337.2 38.4 337.2 88.2 308.7 38.4 293.1 38.4 293.1 109.8 307 109.8 307 59 336.2 109.8 351.1 109.8 351.1 38.4"/>
    <path class="st0" d="M398.2,83.4h16.5c-.7,4.7-2.7,8.5-5.9,11.4-3.2,2.9-7.3,4.3-12.3,4.3s-9.7-1.8-13.7-5.5c-4-3.7-6-9.9-6-18.7s1.8-15.3,5.5-19.6c3.7-4.3,8.4-6.5,14.2-6.5s5.7.5,8.2,1.6c4.4,1.9,7.2,5.3,8.3,10.2h14.7c-.8-6.9-4-12.6-9.5-17.2-5.5-4.6-12.8-6.9-21.9-6.9s-18.9,3.5-25.2,10.5c-6.4,7-9.5,16.2-9.5,27.8s3.1,20.4,9.4,27c6,6.6,13.8,9.8,23.3,9.8s10.6-1.2,14.5-3.6c2.3-1.4,4.9-3.8,7.8-7.2l1.5,8.9h9.9v-38.3h-29.8v11.9Z"/>
    <path class="st0" d="M457.7,95.1h26.3l4.6,14.7h16.2l-25.3-71.4h-16.9l-25.5,71.4h15.6l4.9-14.7ZM470.9,54.7l8.9,28.1h-18.1l9.2-28.1Z"/>
    <path class="st0" d="M223.7,171.6c-.9,1.7-2,3.1-3.3,4.3-1.3,1.2-2.8,2.2-4.6,2.9-1.7.7-3.7,1-5.8,1-3.4,0-6.2-.6-8.5-1.9-2.3-1.3-4-3-5.4-5.1-1.3-2.1-2.3-4.5-2.9-7.1-.6-2.7-.9-5.4-.9-8.1s.3-5.7,1-8.4c.7-2.6,1.7-5,3.1-7,1.4-2,3.2-3.6,5.3-4.8,2.2-1.2,4.7-1.8,7.7-1.8,4.2,0,7.6.9,10.3,2.7,2.6,1.8,4.4,4.8,5.4,9h4.8c-.4-2.6-1.2-4.8-2.2-6.8-1.1-2-2.5-3.6-4.1-4.9-1.7-1.3-3.6-2.3-5.8-3-2.2-.7-4.5-1-7.1-1s-6.4.5-9.2,1.4c-2.8.9-5.2,2.5-7.3,4.5-2.1,2.1-3.7,4.8-4.9,8.1-1.2,3.3-1.8,7.3-1.8,12.1s.4,6.9,1.2,10c.8,3.1,2,5.9,3.8,8.3,1.7,2.4,3.9,4.3,6.6,5.7,2.7,1.4,6,2.1,9.8,2.1s6.2-.5,8.6-1.4c2.5-.9,4.5-2.2,6.3-3.8,1.7-1.6,3.1-3.5,4.2-5.6,1.1-2.1,1.9-4.4,2.4-6.8h-4.9c-.5,2-1.1,3.8-2,5.4Z"/>
    <path class="st0" d="M278.1,139.2c-2-2.4-4.4-4.2-7.3-5.6-2.9-1.4-6.3-2-10.2-2s-7,.7-9.9,2.1c-2.8,1.4-5.2,3.2-7.2,5.6-1.9,2.4-3.4,5.1-4.4,8.3-1,3.2-1.5,6.6-1.5,10.2s.5,6.9,1.4,10.1c1,3.1,2.4,5.9,4.3,8.3,1.9,2.4,4.3,4.2,7.2,5.6s6.2,2.1,10.1,2.1,7.2-.7,10.1-2.1,5.3-3.2,7.2-5.6c1.9-2.4,3.4-5.1,4.4-8.3,1-3.1,1.5-6.5,1.5-10.1s-.5-7-1.5-10.2c-1-3.2-2.5-6-4.4-8.3ZM278.3,166.1c-.7,2.7-1.8,5-3.3,7-1.5,2-3.4,3.6-5.7,4.9-2.3,1.2-5.1,1.8-8.3,1.8s-6.1-.6-8.4-1.8c-2.3-1.2-4.2-2.8-5.7-4.8-1.5-2-2.6-4.4-3.3-7-.7-2.7-1.1-5.5-1.1-8.4s.4-5.7,1.1-8.3c.7-2.7,1.8-5,3.3-7.1,1.5-2,3.4-3.7,5.7-4.9,2.3-1.2,5.1-1.9,8.2-1.9s5.4.5,7.7,1.5c2.3,1,4.2,2.5,5.9,4.4,1.6,1.9,2.8,4.3,3.7,7,.8,2.7,1.3,5.8,1.3,9.3s-.4,5.7-1.1,8.3Z"/>
    <polygon class="st0" points="327.3 176.2 327.2 176.2 298.5 132.8 293.2 132.8 293.2 182.4 297.9 182.4 297.9 139.2 298 139.2 326.5 182.4 332 182.4 332 132.8 327.3 132.8 327.3 176.2"/>
    <path class="st0" d="M372.1,159.4c-1.3-1-2.9-1.8-4.6-2.4-1.7-.6-3.5-1.1-5.3-1.5-1.8-.4-3.6-.8-5.4-1.2-1.8-.4-3.4-.9-4.9-1.5-1.5-.6-2.7-1.4-3.7-2.4-1-1-1.7-2.3-1.9-3.9-.2-1.3-.2-2.6.2-3.9.4-1.3,1-2.5,2-3.5,1-1.1,2.3-1.9,3.9-2.6,1.6-.7,3.6-1,6-1s3.1.2,4.5.6c1.5.4,2.8,1.1,3.9,1.9,1.1.9,2.1,2,2.7,3.4.7,1.4,1,3,1,4.9h4.5c0-2-.3-3.9-1-5.7-.7-1.8-1.7-3.4-3.1-4.7-1.4-1.4-3.1-2.4-5.2-3.2-2.1-.8-4.5-1.2-7.3-1.2s-5.2.4-7.3,1.1c-2.1.7-3.9,1.7-5.3,3-1.4,1.2-2.5,2.7-3.2,4.3-.7,1.6-1.1,3.3-1.1,5,0,2.4.4,4.4,1.3,6,.9,1.6,2,2.9,3.4,3.9,1.4,1,3,1.8,4.8,2.4,1.8.6,3.7,1.1,5.6,1.6,1.9.4,3.8.9,5.6,1.3,1.8.5,3.4,1.1,4.8,1.8,1.4.8,2.5,1.7,3.4,2.9.9,1.2,1.3,2.8,1.3,4.7s-.2,2.7-.7,3.9c-.5,1.2-1.2,2.3-2.2,3.3-1,.9-2.3,1.7-3.9,2.2-1.6.6-3.5.8-5.7.8s-3.7-.2-5.3-.7c-1.7-.4-3.1-1.1-4.4-2.1-1.3-1-2.3-2.2-3.1-3.8-.8-1.5-1.3-3.4-1.5-5.6h-4.5c0,2.7.4,5.1,1.3,7.1.9,2,2.1,3.7,3.8,5,1.6,1.4,3.5,2.4,5.7,3,2.2.7,4.6,1,7.2,1,5.7,0,10.2-1.3,13.4-3.8,3.2-2.5,4.8-6.1,4.8-10.7s-.4-4.4-1.2-6c-.8-1.6-1.9-2.9-3.2-3.9Z"/>
    <path class="st0" d="M419,162.4c0,2.9-.3,5.5-.8,7.6-.5,2.2-1.3,4-2.5,5.4-1.1,1.4-2.7,2.5-4.5,3.2-1.9.7-4.1,1.1-6.8,1.1-5.1,0-8.8-1.4-11.1-4.1-2.3-2.7-3.4-7.1-3.4-13.3v-29.6h-4.7v30.9c0,6.3,1.6,11.3,4.8,14.7,3.2,3.5,8,5.2,14.5,5.2s11.2-1.7,14.4-5.1c3.2-3.4,4.8-8.4,4.8-14.8v-30.9h-4.7v29.6Z"/>
    <polygon class="st0" points="439.6 132.8 434.9 132.8 434.9 182.4 466.2 182.4 466.2 178.4 439.6 178.4 439.6 132.8"/>
    <polygon class="st0" points="468.7 136.8 484.4 136.8 484.4 182.4 489.1 182.4 489.1 136.8 504.8 136.8 504.8 132.8 468.7 132.8 468.7 136.8"/>
  </g>
</svg>